<svg width="400" height="400" viewBox="0 0 400 400" fill="none" xmlns="http://www.w3.org/2000/svg">
<g clip-path="url(#clip0_11_7)">
<path fill-rule="evenodd" clip-rule="evenodd" d="M49.8185 272.642C49.8185 272.642 90.0659 65.1798 195.532 62.4088C315.568 65.8706 359.976 260.851 362.056 272.642C314.869 310.111 155.975 343.419 49.8185 272.642V272.642Z" fill="#00B5C1" stroke="black" stroke-width="10" stroke-linejoin="round"/>
<path fill-rule="evenodd" clip-rule="evenodd" d="M132.386 305.95C124.528 176.895 184.66 66.5693 194.143 62.4009C207.323 64.489 291.978 223.383 279.489 305.95C243.402 314.271 174.023 318.44 132.386 305.95V305.95Z" fill="#FFAC00" stroke="black" stroke-width="10" stroke-linejoin="round"/>
<path fill-rule="evenodd" clip-rule="evenodd" d="M8.77459 52.337C7.38693 67.6055 130.302 77.6693 174.71 71.4285C187.89 65.8706 198.998 63.0995 212.869 70.7298C266.996 83.2193 393.971 77.6693 391.192 57.5495C377.313 39.5068 263.526 41.5887 209.399 51.9995C202.46 56.16 190.669 59.6298 174.71 49.9192C163.61 42.2826 13.5082 35.8981 8.77459 52.337V52.337Z" fill="#FF5C00" stroke="black" stroke-width="10" stroke-linejoin="round"/>
<path fill-rule="evenodd" clip-rule="evenodd" d="M182.344 55.4692C180.954 63.0995 202.464 64.489 210.102 58.2403C214.262 17.3036 185.814 13.8347 182.344 55.4692V55.4692Z" fill="#AC00FF" stroke="black" stroke-width="10" stroke-linejoin="round"/>
<g filter="url(#filter0_f_11_7)">
<path fill-rule="evenodd" clip-rule="evenodd" d="M53.2882 269.871C76.1854 165.787 129.615 89.468 152.513 80.4482C38.7184 205.335 126.836 325.379 53.2882 269.871V269.871Z" fill="white" fill-opacity="0.5"/>
</g>
<g filter="url(#filter1_f_11_7)">
<path fill-rule="evenodd" clip-rule="evenodd" d="M194.833 29.7932C188.593 36.7319 183.043 58.2403 187.203 57.5495C203.162 65.1798 189.283 42.9766 194.833 29.7932Z" fill="white" fill-opacity="0.49804"/>
</g>
<g filter="url(#filter2_f_11_7)">
<path fill-rule="evenodd" clip-rule="evenodd" d="M287.119 299.701C326.668 267.783 337.077 221.993 334.997 208.114C341.238 218.524 363.445 265.012 353.727 272.642C341.936 280.272 325.977 289.991 287.119 299.701V299.701Z" fill="black" fill-opacity="0.25"/>
</g>
<g filter="url(#filter3_f_11_7)">
<path fill-rule="evenodd" clip-rule="evenodd" d="M216.343 55.4692C212.182 51.9995 356.506 38.8137 382.867 56.8509C342.627 47.8334 263.529 51.3008 216.343 55.4692Z" fill="black" fill-opacity="0.30038"/>
</g>
<g filter="url(#filter4_f_11_7)">
<path fill-rule="evenodd" clip-rule="evenodd" d="M13.5142 49.6837C1.71865 55.2337 120.597 79.0588 171.937 66.5693C105.329 63.0995 73.8814 69.1048 13.5142 49.6837V49.6837Z" fill="white" fill-opacity="0.77186"/>
</g>
<path d="M186.005 196.419H232.666V315.966C232.609 327.319 229.743 337.31 224.066 345.938C218.446 354.51 210.67 361.208 200.736 366.033C190.859 370.801 179.477 373.186 166.591 373.186C155.409 373.186 145.191 371.256 135.938 367.395C126.686 363.479 119.306 357.348 113.8 349.004C108.294 340.602 105.569 329.703 105.626 316.307H152.968C153.138 320.678 153.876 324.367 155.182 327.376C156.544 330.385 158.417 332.655 160.801 334.188C163.242 335.664 166.194 336.402 169.657 336.402C173.176 336.402 176.128 335.635 178.512 334.103C180.953 332.57 182.798 330.299 184.047 327.291C185.296 324.226 185.948 320.451 186.005 315.966V196.419ZM319.774 196.419H366.435V315.966C366.378 327.319 363.512 337.31 357.835 345.938C352.215 354.51 344.439 361.208 334.505 366.033C324.628 370.801 313.246 373.186 300.36 373.186C289.178 373.186 278.96 371.256 269.707 367.395C260.454 363.479 253.075 357.348 247.569 349.004C242.063 340.602 239.338 329.703 239.395 316.307H286.737C286.907 320.678 287.645 324.367 288.951 327.376C290.313 330.385 292.186 332.655 294.57 334.188C297.011 335.664 299.963 336.402 303.426 336.402C306.945 336.402 309.897 335.635 312.281 334.103C314.722 332.57 316.567 330.299 317.816 327.291C319.065 324.226 319.717 320.451 319.774 315.966V196.419Z" fill="white"/>
<path d="M186.005 196.419V184.419C179.378 184.419 174.005 189.791 174.005 196.419H186.005ZM232.666 196.419H244.666C244.666 189.791 239.294 184.419 232.666 184.419V196.419ZM232.666 315.966L244.666 316.026C244.666 316.006 244.666 315.986 244.666 315.966L232.666 315.966ZM224.066 345.938L214.041 339.343C214.038 339.348 214.034 339.353 214.031 339.359L224.066 345.938ZM200.736 366.033L205.953 376.84C205.961 376.836 205.97 376.831 205.979 376.827L200.736 366.033ZM135.938 367.395L131.26 378.446C131.28 378.454 131.299 378.462 131.318 378.47L135.938 367.395ZM113.8 349.004L103.763 355.581C103.77 355.592 103.777 355.602 103.784 355.613L113.8 349.004ZM105.626 316.307V304.307C99.018 304.307 93.6537 309.648 93.6257 316.256L105.626 316.307ZM152.968 316.307L164.959 315.84C164.708 309.399 159.413 304.307 152.968 304.307V316.307ZM155.182 327.376L144.174 332.153C144.199 332.211 144.224 332.269 144.25 332.326L155.182 327.376ZM160.801 334.188L154.312 344.282C154.405 344.341 154.498 344.4 154.592 344.457L160.801 334.188ZM178.512 334.103L172.131 323.94C172.095 323.963 172.059 323.985 172.023 324.009L178.512 334.103ZM184.047 327.291L195.13 331.891C195.14 331.867 195.15 331.843 195.16 331.818L184.047 327.291ZM186.005 315.966L198.004 316.118C198.005 316.067 198.005 316.017 198.005 315.966H186.005ZM186.005 208.419H232.666V184.419H186.005V208.419ZM220.666 196.419V315.966H244.666V196.419H220.666ZM220.666 315.906C220.62 325.175 218.315 332.847 214.041 339.343L234.091 352.534C241.171 341.773 244.599 329.463 244.666 316.026L220.666 315.906ZM214.031 339.359C209.691 345.978 203.635 351.284 195.493 355.239L205.979 376.827C217.705 371.132 227.202 363.041 234.102 352.518L214.031 339.359ZM195.519 355.226C187.529 359.083 177.984 361.186 166.591 361.186V385.186C180.97 385.186 194.188 382.519 205.953 376.84L195.519 355.226ZM166.591 361.186C156.812 361.186 148.187 359.503 140.558 356.321L131.318 378.47C142.195 383.008 154.006 385.186 166.591 385.186V361.186ZM140.616 356.345C133.53 353.345 128.012 348.754 123.816 342.394L103.784 355.613C110.6 365.942 119.841 373.612 131.26 378.446L140.616 356.345ZM123.836 342.426C119.986 336.551 117.575 328.169 117.626 316.358L93.6257 316.256C93.5622 331.238 96.6011 344.654 103.763 355.581L123.836 342.426ZM105.626 328.307H152.968V304.307H105.626V328.307ZM140.977 316.774C141.187 322.163 142.115 327.41 144.174 332.153L166.19 322.599C165.637 321.325 165.089 319.192 164.959 315.84L140.977 316.774ZM144.25 332.326C146.406 337.086 149.678 341.303 154.312 344.282L167.29 324.094C167.156 324.007 166.682 323.683 166.113 322.426L144.25 332.326ZM154.592 344.457C159.271 347.285 164.474 348.402 169.657 348.402V324.402C167.914 324.402 167.214 324.042 167.01 323.919L154.592 344.457ZM169.657 348.402C174.921 348.402 180.261 347.244 185.001 344.197L172.023 324.009C171.995 324.027 171.432 324.402 169.657 324.402V348.402ZM184.893 344.265C189.708 341.242 193.057 336.885 195.13 331.891L172.964 322.69C172.539 323.714 172.198 323.898 172.131 323.94L184.893 344.265ZM195.16 331.818C197.137 326.965 197.935 321.604 198.004 316.118L174.006 315.814C173.962 319.297 173.454 321.486 172.934 322.763L195.16 331.818ZM198.005 315.966V196.419H174.005V315.966H198.005ZM319.774 196.419V184.419C313.147 184.419 307.774 189.791 307.774 196.419H319.774ZM366.435 196.419H378.435C378.435 189.791 373.063 184.419 366.435 184.419V196.419ZM366.435 315.966L378.435 316.026C378.435 316.006 378.435 315.986 378.435 315.966L366.435 315.966ZM357.835 345.938L347.81 339.343C347.807 339.348 347.803 339.353 347.8 339.359L357.835 345.938ZM334.505 366.033L339.722 376.84C339.73 376.836 339.739 376.831 339.748 376.827L334.505 366.033ZM269.707 367.395L265.029 378.446C265.049 378.454 265.068 378.462 265.087 378.47L269.707 367.395ZM247.569 349.004L237.532 355.581C237.539 355.592 237.546 355.602 237.553 355.613L247.569 349.004ZM239.395 316.307V304.307C232.787 304.307 227.423 309.648 227.395 316.256L239.395 316.307ZM286.737 316.307L298.728 315.84C298.477 309.399 293.182 304.307 286.737 304.307V316.307ZM288.951 327.376L277.942 332.153C277.968 332.211 277.993 332.269 278.019 332.326L288.951 327.376ZM294.57 334.188L288.081 344.282C288.174 344.341 288.267 344.4 288.361 344.457L294.57 334.188ZM312.281 334.103L305.9 323.94C305.864 323.963 305.828 323.985 305.792 324.009L312.281 334.103ZM317.816 327.291L328.899 331.891C328.909 331.867 328.919 331.843 328.929 331.818L317.816 327.291ZM319.774 315.966L331.773 316.118C331.774 316.067 331.774 316.017 331.774 315.966H319.774ZM319.774 208.419H366.435V184.419H319.774V208.419ZM354.435 196.419V315.966H378.435V196.419H354.435ZM354.435 315.906C354.389 325.175 352.084 332.847 347.81 339.343L367.86 352.534C374.94 341.773 378.368 329.463 378.435 316.026L354.435 315.906ZM347.8 339.359C343.46 345.978 337.404 351.284 329.262 355.239L339.748 376.827C351.474 371.132 360.971 363.041 367.871 352.518L347.8 339.359ZM329.288 355.226C321.298 359.083 311.753 361.186 300.36 361.186V385.186C314.739 385.186 327.957 382.519 339.722 376.84L329.288 355.226ZM300.36 361.186C290.581 361.186 281.956 359.503 274.327 356.321L265.087 378.47C275.964 383.008 287.775 385.186 300.36 385.186V361.186ZM274.385 356.345C267.299 353.345 261.781 348.754 257.585 342.394L237.553 355.613C244.369 365.942 253.61 373.612 265.029 378.446L274.385 356.345ZM257.605 342.426C253.755 336.551 251.344 328.169 251.394 316.358L227.395 316.256C227.331 331.238 230.37 344.654 237.532 355.581L257.605 342.426ZM239.395 328.307H286.737V304.307H239.395V328.307ZM274.746 316.774C274.956 322.163 275.884 327.41 277.942 332.153L299.959 322.599C299.406 321.325 298.858 319.192 298.728 315.84L274.746 316.774ZM278.019 332.326C280.175 337.086 283.447 341.303 288.081 344.282L301.059 324.094C300.925 324.007 300.451 323.683 299.882 322.426L278.019 332.326ZM288.361 344.457C293.04 347.285 298.243 348.402 303.426 348.402V324.402C301.683 324.402 300.983 324.042 300.779 323.919L288.361 344.457ZM303.426 348.402C308.69 348.402 314.03 347.244 318.77 344.197L305.792 324.009C305.764 324.027 305.2 324.402 303.426 324.402V348.402ZM318.662 344.265C323.477 341.242 326.826 336.885 328.899 331.891L306.733 322.69C306.308 323.714 305.967 323.898 305.9 323.94L318.662 344.265ZM328.929 331.818C330.906 326.965 331.704 321.604 331.773 316.118L307.775 315.814C307.731 319.297 307.223 321.486 306.703 322.763L328.929 331.818ZM331.774 315.966V196.419H307.774V315.966H331.774Z" fill="black"/>
</g>
<defs>
<filter id="filter0_f_11_7" x="49.6792" y="76.8392" width="106.443" height="210.571" filterUnits="userSpaceOnUse" color-interpolation-filters="sRGB">
<feFlood flood-opacity="0" result="BackgroundImageFix"/>
<feBlend mode="normal" in="SourceGraphic" in2="BackgroundImageFix" result="shape"/>
<feGaussianBlur stdDeviation="1.8045" result="effect1_foregroundBlur_11_7"/>
</filter>
<filter id="filter1_f_11_7" x="182.434" y="26.4664" width="16.0778" height="35.9671" filterUnits="userSpaceOnUse" color-interpolation-filters="sRGB">
<feFlood flood-opacity="0" result="BackgroundImageFix"/>
<feBlend mode="normal" in="SourceGraphic" in2="BackgroundImageFix" result="shape"/>
<feGaussianBlur stdDeviation="1.6634" result="effect1_foregroundBlur_11_7"/>
</filter>
<filter id="filter2_f_11_7" x="277.54" y="198.535" width="88.1922" height="110.746" filterUnits="userSpaceOnUse" color-interpolation-filters="sRGB">
<feFlood flood-opacity="0" result="BackgroundImageFix"/>
<feBlend mode="normal" in="SourceGraphic" in2="BackgroundImageFix" result="shape"/>
<feGaussianBlur stdDeviation="4.78966" result="effect1_foregroundBlur_11_7"/>
</filter>
<filter id="filter3_f_11_7" x="212.058" y="43.3693" width="175.005" height="17.6777" filterUnits="userSpaceOnUse" color-interpolation-filters="sRGB">
<feFlood flood-opacity="0" result="BackgroundImageFix"/>
<feBlend mode="normal" in="SourceGraphic" in2="BackgroundImageFix" result="shape"/>
<feGaussianBlur stdDeviation="2.09811" result="effect1_foregroundBlur_11_7"/>
</filter>
<filter id="filter4_f_11_7" x="8.83826" y="45.8256" width="166.957" height="28.1752" filterUnits="userSpaceOnUse" color-interpolation-filters="sRGB">
<feFlood flood-opacity="0" result="BackgroundImageFix"/>
<feBlend mode="normal" in="SourceGraphic" in2="BackgroundImageFix" result="shape"/>
<feGaussianBlur stdDeviation="1.92907" result="effect1_foregroundBlur_11_7"/>
</filter>
<clipPath id="clip0_11_7">
<rect width="400" height="400" fill="white"/>
</clipPath>
</defs>
</svg>
